<svg xmlns="http://www.w3.org/2000/svg" width="179" height="179" viewBox="0 0 179 179">
    <defs>
        <linearGradient id="a" x1="100%" x2="0%" y1="0%" y2="100%">
            <stop offset="0%" stop-color="#C40F61"/>
            <stop offset="100%" stop-color="#E27210"/>
        </linearGradient>
    </defs>
    <g fill="none" fill-rule="evenodd">
        <circle cx="89.5" cy="89.5" r="89.5" fill="url(#a)"/>
        <g fill="#FFF">
            <path d="M43.88 120.357L39 133.807h3.458l.96-2.787h5.036l.96 2.787h3.458l-4.88-13.45H43.88zm2.056 3.363l1.44 4.188h-2.88l1.44-4.188zM55.583 120.357v13.45h8.724v-3.113H58.85v-10.337zM84.098 120.357v13.45h9.262v-3.113h-5.995v-2.114h5.458v-3.112h-5.458v-1.998h5.995v-3.113zM130.588 120.357l-4.88 13.45h3.458l.96-2.787h5.035l.96 2.787h3.459l-4.88-13.45h-4.112zm2.056 3.363l1.44 4.188h-2.881l1.44-4.188zM116.129 77.364c-2.198 1.24-4.46 2.216-6.602 3.27l8.272 20.334c-2.51.263-7.411.84-11.076.867-9.207.071-16.093-1.422-19.388-4.194-1.577-1.327-2.318-2.92-2.334-5.017-.044-5.909 6.337-9.153 17.62-14.378 7.403-3.428 15.755-7.649 23.942-13.72l-2.678-6.53c-10.406 7.394-15.4 9.427-24.354 13.574-5.826 2.698-10.856 5.028-14.741 7.998-4.847 3.706-7.184 7.995-7.145 13.111.032 4.228 1.745 7.891 4.953 10.591 4.673 3.932 12.579 5.924 23.506 5.923.223 0 .448 0 .673-.002 8.014-.059 14.699-1.153 14.98-1.199l6.425-1.21-12.053-29.418z"/>
            <path d="M77.163 99.36H61.33l19.61-47.934.104-.258c.977-2.357 2.194-5.29 3.884-6.599.584-.452 1.906-1.177 4.316-1.23 2.447.047 3.77.776 4.356 1.23 1.691 1.31 2.908 4.242 3.888 6.604l.445 1.09 6.146 15.023c1.683-.77 3.234-1.487 4.833-2.296.572-.29 1.21-.622 1.778-.928l-6.29-15.38-.135-.325c-1.31-3.158-2.94-7.09-6.17-9.591-1.543-1.193-4.172-2.58-8.213-2.75 0 0-.382-.017-.57-.015-.22-.003-.664.016-.664.016-4.026.17-6.67 1.556-8.213 2.75-3.23 2.5-4.86 6.432-6.17 9.588L50.397 106.7h33.121a17.392 17.392 0 0 1-2.265-1.596c-1.905-1.602-3.278-3.546-4.09-5.744M80.103 126.37v7.437h-2.786v-1.883c-.595 1.19-2.114 2.133-4.227 2.133-3.708 0-6.648-2.902-6.648-6.937 0-4.034 2.94-7.013 6.975-7.013 3.305 0 5.82 1.999 6.552 4.823h-3.497c-.538-1.076-1.633-1.71-3.055-1.71-2.23 0-3.67 1.575-3.67 3.939 0 2.152 1.19 3.88 3.593 3.88 1.479 0 2.748-.652 3.285-1.94h-3.996v-2.728h7.474zM107.959 129.868c0 2.536-1.902 3.939-4.593 3.939h-6.071v-13.45h6.071c2.345 0 4.132 1.153 4.132 3.535 0 1.307-.558 2.095-1.576 2.633 1.383.499 2.037 1.825 2.037 3.343m-5.034-6.398h-2.363v2.017h2.497c.731 0 1.134-.307 1.134-1.018 0-.826-.48-1-1.268-1m1.729 6.11c0-.75-.269-1.114-1.364-1.114h-2.728v2.229h2.728c1.095 0 1.364-.423 1.364-1.114M116.178 129.138h-1.018v4.669h-3.267v-13.45h5.995c2.844 0 4.61 1.69 4.61 4.496 0 2.152-1.036 3.439-2.69 3.978l3.537 4.976h-3.997l-3.17-4.67zm1.345-5.668h-2.363v2.805h2.363c1.134 0 1.67-.461 1.67-1.383 0-.942-.575-1.422-1.67-1.422z"/>
        </g>
    </g>
</svg>
